<svg width="51" height="48" viewBox="0 0 51 48" fill="none" xmlns="http://www.w3.org/2000/svg">
<g clip-path="url(#clip0_39_1450)">
<path d="M0.80957 3.08248C0.80957 1.87811 1.73397 0.90918 2.88298 0.90918H6.81383C8.71446 0.90918 10.3991 2.06827 11.1853 3.80691H46.6925C48.9646 3.80691 50.6233 6.07076 50.0272 8.37083L46.4851 22.1622C45.7508 25.0056 43.2886 26.9887 40.4809 26.9887H15.5567L16.0232 29.5695C16.2133 30.5928 17.0686 31.3353 18.0621 31.3353H42.969C44.118 31.3353 45.0424 32.3042 45.0424 33.5086C45.0424 34.713 44.118 35.6819 42.969 35.6819H18.0621C15.0729 35.6819 12.5071 33.4543 11.9542 30.3845L7.49633 5.84437C7.43585 5.50027 7.15076 5.25577 6.81383 5.25577H2.88298C1.73397 5.25577 0.80957 4.28684 0.80957 3.08248ZM11.8678 42.9262C11.8678 42.3554 11.975 41.7902 12.1834 41.2629C12.3918 40.7355 12.6973 40.2563 13.0823 39.8527C13.4674 39.4491 13.9246 39.1289 14.4277 38.9105C14.9308 38.6921 15.47 38.5796 16.0146 38.5796C16.5592 38.5796 17.0984 38.6921 17.6015 38.9105C18.1046 39.1289 18.5618 39.4491 18.9468 39.8527C19.3319 40.2563 19.6374 40.7355 19.8458 41.2629C20.0542 41.7902 20.1614 42.3554 20.1614 42.9262C20.1614 43.497 20.0542 44.0622 19.8458 44.5896C19.6374 45.1169 19.3319 45.5961 18.9468 45.9997C18.5618 46.4033 18.1046 46.7235 17.6015 46.942C17.0984 47.1604 16.5592 47.2728 16.0146 47.2728C15.47 47.2728 14.9308 47.1604 14.4277 46.942C13.9246 46.7235 13.4674 46.4033 13.0823 45.9997C12.6973 45.5961 12.3918 45.1169 12.1834 44.5896C11.975 44.0622 11.8678 43.497 11.8678 42.9262ZM40.8955 38.5796C41.9954 38.5796 43.0501 39.0376 43.8278 39.8527C44.6055 40.6679 45.0424 41.7734 45.0424 42.9262C45.0424 44.079 44.6055 45.1846 43.8278 45.9997C43.0501 46.8149 41.9954 47.2728 40.8955 47.2728C39.7957 47.2728 38.741 46.8149 37.9633 45.9997C37.1856 45.1846 36.7487 44.079 36.7487 42.9262C36.7487 41.7734 37.1856 40.6679 37.9633 39.8527C38.741 39.0376 39.7957 38.5796 40.8955 38.5796Z" fill="#003844"/>
</g>
<defs>
<clipPath id="clip0_39_1450">
<rect width="49.7619" height="46.3636" fill="white" transform="translate(0.80957 0.90918)"/>
</clipPath>
</defs>
</svg>
