<svg width="512" height="512" viewBox="0 0 512 512" fill="none" xmlns="http://www.w3.org/2000/svg">
<path d="M256 32C167.67 32 96 96.51 96 176C96 304 256 480 256 480C256 480 416 304 416 176C416 96.51 344.33 32 256 32ZM256 256C243.342 256 230.968 252.246 220.444 245.214C209.919 238.182 201.716 228.186 196.872 216.492C192.028 204.797 190.76 191.929 193.23 179.514C195.699 167.099 201.795 155.696 210.745 146.745C219.696 137.795 231.099 131.699 243.514 129.23C255.929 126.76 268.797 128.028 280.492 132.872C292.186 137.716 302.182 145.919 309.214 156.444C316.246 166.968 320 179.342 320 192C319.981 208.968 313.233 225.236 301.234 237.234C289.236 249.233 272.968 255.981 256 256Z" fill="black"/>
</svg>
