<svg width="60" height="60" viewBox="0 0 60 60" fill="none" xmlns="http://www.w3.org/2000/svg">
<circle cx="30" cy="30" r="29" stroke="#006C67" stroke-width="2"/>
<g clip-path="url(#clip0_73_625)">
<path d="M31.7281 46.125C35.4688 41.7363 44 31.0996 44 25.125C44 17.8789 37.7292 12 30 12C22.2708 12 16 17.8789 16 25.125C16 31.0996 24.5312 41.7363 28.2719 46.125C29.1687 47.1709 30.8312 47.1709 31.7281 46.125ZM30 20.75C31.2377 20.75 32.4247 21.2109 33.2998 22.0314C34.175 22.8519 34.6667 23.9647 34.6667 25.125C34.6667 26.2853 34.175 27.3981 33.2998 28.2186C32.4247 29.0391 31.2377 29.5 30 29.5C28.7623 29.5 27.5753 29.0391 26.7002 28.2186C25.825 27.3981 25.3333 26.2853 25.3333 25.125C25.3333 23.9647 25.825 22.8519 26.7002 22.0314C27.5753 21.2109 28.7623 20.75 30 20.75Z" fill="#006C67"/>
</g>
<defs>
<clipPath id="clip0_73_625">
<rect width="28" height="35" fill="white" transform="translate(16 12)"/>
</clipPath>
</defs>
</svg>
