<svg width="95" height="96" viewBox="0 0 95 96" fill="none" xmlns="http://www.w3.org/2000/svg">
<path d="M93.5 48.2727C93.5 73.8101 72.8984 94.5 47.5 94.5C22.1016 94.5 1.5 73.8101 1.5 48.2727C1.5 22.7353 22.1016 2.04541 47.5 2.04541C72.8984 2.04541 93.5 22.7353 93.5 48.2727Z" stroke="white" stroke-width="3"/>
<g clip-path="url(#clip0_39_1457)">
<path d="M20.8096 29.0825C20.8096 27.8781 21.734 26.9092 22.883 26.9092H26.8138C28.7145 26.9092 30.3991 28.0683 31.1853 29.8069H66.6925C68.9646 29.8069 70.6233 32.0708 70.0272 34.3708L66.4851 48.1622C65.7508 51.0056 63.2886 52.9887 60.4809 52.9887H35.5567L36.0232 55.5695C36.2133 56.5928 37.0686 57.3353 38.0621 57.3353H62.969C64.118 57.3353 65.0424 58.3042 65.0424 59.5086C65.0424 60.713 64.118 61.6819 62.969 61.6819H38.0621C35.0729 61.6819 32.5071 59.4543 31.9542 56.3845L27.4963 31.8444C27.4359 31.5003 27.1508 31.2558 26.8138 31.2558H22.883C21.734 31.2558 20.8096 30.2868 20.8096 29.0825ZM31.8678 68.9262C31.8678 68.3554 31.975 67.7902 32.1834 67.2629C32.3918 66.7355 32.6973 66.2563 33.0823 65.8527C33.4674 65.4491 33.9246 65.1289 34.4277 64.9105C34.9308 64.6921 35.47 64.5796 36.0146 64.5796C36.5592 64.5796 37.0984 64.6921 37.6015 64.9105C38.1046 65.1289 38.5618 65.4491 38.9468 65.8527C39.3319 66.2563 39.6374 66.7355 39.8458 67.2629C40.0542 67.7902 40.1614 68.3554 40.1614 68.9262C40.1614 69.497 40.0542 70.0622 39.8458 70.5896C39.6374 71.1169 39.3319 71.5961 38.9468 71.9997C38.5618 72.4033 38.1046 72.7235 37.6015 72.942C37.0984 73.1604 36.5592 73.2728 36.0146 73.2728C35.47 73.2728 34.9308 73.1604 34.4277 72.942C33.9246 72.7235 33.4674 72.4033 33.0823 71.9997C32.6973 71.5961 32.3918 71.1169 32.1834 70.5896C31.975 70.0622 31.8678 69.497 31.8678 68.9262ZM60.8955 64.5796C61.9954 64.5796 63.0501 65.0376 63.8278 65.8527C64.6055 66.6679 65.0424 67.7734 65.0424 68.9262C65.0424 70.079 64.6055 71.1846 63.8278 71.9997C63.0501 72.8149 61.9954 73.2728 60.8955 73.2728C59.7957 73.2728 58.741 72.8149 57.9633 71.9997C57.1856 71.1846 56.7487 70.079 56.7487 68.9262C56.7487 67.7734 57.1856 66.6679 57.9633 65.8527C58.741 65.0376 59.7957 64.5796 60.8955 64.5796Z" fill="#003844"/>
</g>
<defs>
<clipPath id="clip0_39_1457">
<rect width="49.7619" height="46.3636" fill="white" transform="translate(20.8096 26.9092)"/>
</clipPath>
</defs>
</svg>
