<svg width="46" height="35" viewBox="0 0 46 35" fill="none" xmlns="http://www.w3.org/2000/svg">
<path d="M6.29297 4.8208C5.51953 4.8208 4.88672 5.45361 4.88672 6.22705V8.16943L20.0479 20.6147C21.8672 22.1089 24.4775 22.1089 26.2969 20.6147L41.4492 8.16943V6.22705C41.4492 5.45361 40.8164 4.8208 40.043 4.8208H6.29297ZM4.88672 13.6274V28.7271C4.88672 29.5005 5.51953 30.1333 6.29297 30.1333H40.043C40.8164 30.1333 41.4492 29.5005 41.4492 28.7271V13.6274L28.9688 23.8755C25.5938 26.644 20.7334 26.644 17.3672 23.8755L4.88672 13.6274ZM0.667969 6.22705C0.667969 3.12451 3.19043 0.602051 6.29297 0.602051H40.043C43.1455 0.602051 45.668 3.12451 45.668 6.22705V28.7271C45.668 31.8296 43.1455 34.3521 40.043 34.3521H6.29297C3.19043 34.3521 0.667969 31.8296 0.667969 28.7271V6.22705Z" fill="#006C67"/>
</svg>
