<svg width="75" height="75" viewBox="0 0 75 75" fill="none" xmlns="http://www.w3.org/2000/svg">
<circle cx="37.5" cy="37.5" r="36.5" stroke="#006C67" stroke-width="2"/>
<path d="M55 24.25C55.6875 24.25 56.25 24.8125 56.25 25.5V28H18.75V25.5C18.75 24.8125 19.3125 24.25 20 24.25H55ZM56.25 35.5V50.5C56.25 51.1875 55.6875 51.75 55 51.75H20C19.3125 51.75 18.75 51.1875 18.75 50.5V35.5H56.25ZM20 20.5C17.2422 20.5 15 22.7422 15 25.5V50.5C15 53.2578 17.2422 55.5 20 55.5H55C57.7578 55.5 60 53.2578 60 50.5V25.5C60 22.7422 57.7578 20.5 55 20.5H20ZM24.375 44.25C23.3359 44.25 22.5 45.0859 22.5 46.125C22.5 47.1641 23.3359 48 24.375 48H28.125C29.1641 48 30 47.1641 30 46.125C30 45.0859 29.1641 44.25 28.125 44.25H24.375ZM34.375 44.25C33.3359 44.25 32.5 45.0859 32.5 46.125C32.5 47.1641 33.3359 48 34.375 48H43.125C44.1641 48 45 47.1641 45 46.125C45 45.0859 44.1641 44.25 43.125 44.25H34.375Z" fill="#006C67"/>
</svg>
