<svg width="60" height="60" viewBox="0 0 60 60" fill="none" xmlns="http://www.w3.org/2000/svg">
<circle cx="30" cy="30" r="29" stroke="#006C67" stroke-width="2"/>
<path d="M16.5 19.875C15.8812 19.875 15.375 20.3812 15.375 21V22.5539L27.5039 32.5102C28.9594 33.7055 31.0477 33.7055 32.5031 32.5102L44.625 22.5539V21C44.625 20.3812 44.1188 19.875 43.5 19.875H16.5ZM15.375 26.9203V39C15.375 39.6187 15.8812 40.125 16.5 40.125H43.5C44.1188 40.125 44.625 39.6187 44.625 39V26.9203L34.6406 35.1187C31.9406 37.3336 28.0523 37.3336 25.3594 35.1187L15.375 26.9203ZM12 21C12 18.518 14.018 16.5 16.5 16.5H43.5C45.982 16.5 48 18.518 48 21V39C48 41.482 45.982 43.5 43.5 43.5H16.5C14.018 43.5 12 41.482 12 39V21Z" fill="#006C67"/>
</svg>
