<svg width="75" height="75" viewBox="0 0 75 75" fill="none" xmlns="http://www.w3.org/2000/svg">
<circle cx="37.5" cy="37.5" r="36" stroke="white" stroke-width="3"/>
<path d="M52.1121 26.8065C53.2835 25.479 53.2835 23.3231 52.1121 21.9956C50.9408 20.6681 49.0386 20.6681 47.8673 21.9956L38 33.1891L28.1234 22.0062C26.9521 20.6787 25.0498 20.6787 23.8785 22.0062C22.7072 23.3337 22.7072 25.4896 23.8785 26.8171L33.7551 38L23.8879 49.1935C22.7165 50.521 22.7165 52.6769 23.8879 54.0044C25.0592 55.3319 26.9614 55.3319 28.1328 54.0044L38 42.8109L47.8766 53.9937C49.0479 55.3213 50.9502 55.3213 52.1215 53.9937C53.2928 52.6662 53.2928 50.5104 52.1215 49.1829L42.2449 38L52.1121 26.8065Z" fill="#003844"/>
</svg>
