<svg width="51" height="44" viewBox="0 0 51 44" fill="none" xmlns="http://www.w3.org/2000/svg">
<g clip-path="url(#clip0_75_868)">
<path d="M10.4805 0.571289C8.51367 0.571289 6.91797 2.29362 6.91797 4.4165V8.26172H3.35547C2.70234 8.26172 2.16797 8.8385 2.16797 9.54346C2.16797 10.2484 2.70234 10.8252 3.35547 10.8252H6.91797H22.3555C23.0086 10.8252 23.543 11.402 23.543 12.1069C23.543 12.8119 23.0086 13.3887 22.3555 13.3887H6.91797H5.73047C5.07734 13.3887 4.54297 13.9655 4.54297 14.6704C4.54297 15.3754 5.07734 15.9521 5.73047 15.9521H6.91797H19.9805C20.6336 15.9521 21.168 16.5289 21.168 17.2339C21.168 17.9388 20.6336 18.5156 19.9805 18.5156H6.91797H3.35547C2.70234 18.5156 2.16797 19.0924 2.16797 19.7974C2.16797 20.5023 2.70234 21.0791 3.35547 21.0791H6.91797H17.6055C18.2586 21.0791 18.793 21.6559 18.793 22.3608C18.793 23.0658 18.2586 23.6426 17.6055 23.6426H6.91797V33.8965C6.91797 38.1422 10.1094 41.5869 14.043 41.5869C17.9766 41.5869 21.168 38.1422 21.168 33.8965H30.668C30.668 38.1422 33.8594 41.5869 37.793 41.5869C41.7266 41.5869 44.918 38.1422 44.918 33.8965H47.293C48.6066 33.8965 49.668 32.7509 49.668 31.333C49.668 29.9151 48.6066 28.7695 47.293 28.7695V23.6426V21.0791V19.5811C47.293 18.2192 46.7957 16.9135 45.9051 15.9521L40.168 9.75975C39.2773 8.79845 38.0676 8.26172 36.8059 8.26172H33.043V4.4165C33.043 2.29362 31.4473 0.571289 29.4805 0.571289H10.4805ZM42.543 19.5811V21.0791H33.043V13.3887H36.8059L42.543 19.5811ZM14.043 30.0513C14.9878 30.0513 15.8939 30.4564 16.562 31.1775C17.2301 31.8986 17.6055 32.8767 17.6055 33.8965C17.6055 34.9163 17.2301 35.8943 16.562 36.6155C15.8939 37.3366 14.9878 37.7417 14.043 37.7417C13.0981 37.7417 12.192 37.3366 11.5239 36.6155C10.8558 35.8943 10.4805 34.9163 10.4805 33.8965C10.4805 32.8767 10.8558 31.8986 11.5239 31.1775C12.192 30.4564 13.0981 30.0513 14.043 30.0513ZM34.2305 33.8965C34.2305 32.8767 34.6058 31.8986 35.2739 31.1775C35.942 30.4564 36.8481 30.0513 37.793 30.0513C38.7378 30.0513 39.6439 30.4564 40.312 31.1775C40.9801 31.8986 41.3555 32.8767 41.3555 33.8965C41.3555 34.9163 40.9801 35.8943 40.312 36.6155C39.6439 37.3366 38.7378 37.7417 37.793 37.7417C36.8481 37.7417 35.942 37.3366 35.2739 36.6155C34.6058 35.8943 34.2305 34.9163 34.2305 33.8965Z" fill="#006C67"/>
</g>
<defs>
<clipPath id="clip0_75_868">
<rect width="50" height="43.75" fill="white" transform="translate(0.167969 0.0244141)"/>
</clipPath>
</defs>
</svg>
