<svg width="35" height="44" viewBox="0 0 35 44" fill="none" xmlns="http://www.w3.org/2000/svg">
<path d="M19.6602 42.6562C24.3359 37.1704 35 23.8745 35 16.4062C35 7.34863 27.1615 0 17.5 0C7.83854 0 0 7.34863 0 16.4062C0 23.8745 10.6641 37.1704 15.3398 42.6562C16.4609 43.9636 18.5391 43.9636 19.6602 42.6562ZM17.5 10.9375C19.0471 10.9375 20.5308 11.5137 21.6248 12.5393C22.7187 13.5648 23.3333 14.9558 23.3333 16.4062C23.3333 17.8567 22.7187 19.2477 21.6248 20.2732C20.5308 21.2988 19.0471 21.875 17.5 21.875C15.9529 21.875 14.4692 21.2988 13.3752 20.2732C12.2812 19.2477 11.6667 17.8567 11.6667 16.4062C11.6667 14.9558 12.2812 13.5648 13.3752 12.5393C14.4692 11.5137 15.9529 10.9375 17.5 10.9375Z" fill="#006C67"/>
</svg>
