<svg width="60" height="60" viewBox="0 0 60 60" fill="none" xmlns="http://www.w3.org/2000/svg">
<circle cx="30" cy="30" r="29" stroke="#006C67" stroke-width="2"/>
<path d="M18.2496 12.4375C16.6762 12.4375 15.3996 13.8154 15.3996 15.5137V18.5898H12.5496C12.0271 18.5898 11.5996 19.0513 11.5996 19.6152C11.5996 20.1792 12.0271 20.6406 12.5496 20.6406H15.3996H27.7496C28.2721 20.6406 28.6996 21.1021 28.6996 21.666C28.6996 22.23 28.2721 22.6914 27.7496 22.6914H15.3996H14.4496C13.9271 22.6914 13.4996 23.1528 13.4996 23.7168C13.4996 24.2808 13.9271 24.7422 14.4496 24.7422H15.3996H25.8496C26.3721 24.7422 26.7996 25.2036 26.7996 25.7676C26.7996 26.3315 26.3721 26.793 25.8496 26.793H15.3996H12.5496C12.0271 26.793 11.5996 27.2544 11.5996 27.8184C11.5996 28.3823 12.0271 28.8438 12.5496 28.8438H15.3996H23.9496C24.4721 28.8438 24.8996 29.3052 24.8996 29.8691C24.8996 30.4331 24.4721 30.8945 23.9496 30.8945H15.3996V39.0977C15.3996 42.4943 17.9527 45.25 21.0996 45.25C24.2465 45.25 26.7996 42.4943 26.7996 39.0977H34.3996C34.3996 42.4943 36.9527 45.25 40.0996 45.25C43.2465 45.25 45.7996 42.4943 45.7996 39.0977H47.6996C48.7505 39.0977 49.5996 38.1812 49.5996 37.0469C49.5996 35.9125 48.7505 34.9961 47.6996 34.9961V30.8945V28.8438V27.6453C47.6996 26.5558 47.3018 25.5112 46.5893 24.7422L41.9996 19.7883C41.2871 19.0192 40.3193 18.5898 39.3099 18.5898H36.2996V15.5137C36.2996 13.8154 35.023 12.4375 33.4496 12.4375H18.2496ZM43.8996 27.6453V28.8438H36.2996V22.6914H39.3099L43.8996 27.6453ZM21.0996 36.0215C21.8555 36.0215 22.5804 36.3456 23.1149 36.9225C23.6493 37.4994 23.9496 38.2818 23.9496 39.0977C23.9496 39.9135 23.6493 40.6959 23.1149 41.2728C22.5804 41.8497 21.8555 42.1738 21.0996 42.1738C20.3437 42.1738 19.6188 41.8497 19.0844 41.2728C18.5499 40.6959 18.2496 39.9135 18.2496 39.0977C18.2496 38.2818 18.5499 37.4994 19.0844 36.9225C19.6188 36.3456 20.3437 36.0215 21.0996 36.0215ZM37.2496 39.0977C37.2496 38.2818 37.5499 37.4994 38.0844 36.9225C38.6188 36.3456 39.3437 36.0215 40.0996 36.0215C40.8555 36.0215 41.5804 36.3456 42.1149 36.9225C42.6493 37.4994 42.9496 38.2818 42.9496 39.0977C42.9496 39.9135 42.6493 40.6959 42.1149 41.2728C41.5804 41.8497 40.8555 42.1738 40.0996 42.1738C39.3437 42.1738 38.6188 41.8497 38.0844 41.2728C37.5499 40.6959 37.2496 39.9135 37.2496 39.0977Z" fill="#006C67"/>
</svg>
