<svg width="45" height="40" viewBox="0 0 45 40" fill="none" xmlns="http://www.w3.org/2000/svg">
<path d="M40 6.25C40.6875 6.25 41.25 6.8125 41.25 7.5V10H3.75V7.5C3.75 6.8125 4.3125 6.25 5 6.25H40ZM41.25 17.5V32.5C41.25 33.1875 40.6875 33.75 40 33.75H5C4.3125 33.75 3.75 33.1875 3.75 32.5V17.5H41.25ZM5 2.5C2.24219 2.5 0 4.74219 0 7.5V32.5C0 35.2578 2.24219 37.5 5 37.5H40C42.7578 37.5 45 35.2578 45 32.5V7.5C45 4.74219 42.7578 2.5 40 2.5H5ZM9.375 26.25C8.33594 26.25 7.5 27.0859 7.5 28.125C7.5 29.1641 8.33594 30 9.375 30H13.125C14.1641 30 15 29.1641 15 28.125C15 27.0859 14.1641 26.25 13.125 26.25H9.375ZM19.375 26.25C18.3359 26.25 17.5 27.0859 17.5 28.125C17.5 29.1641 18.3359 30 19.375 30H28.125C29.1641 30 30 29.1641 30 28.125C30 27.0859 29.1641 26.25 28.125 26.25H19.375Z" fill="#006C67"/>
</svg>
