<svg width="95" height="95" viewBox="0 0 95 95" fill="none" xmlns="http://www.w3.org/2000/svg">
<circle cx="47.5" cy="47.5" r="46" stroke="white" stroke-width="3"/>
<g clip-path="url(#clip0_39_1458)">
<path d="M62.0893 42.8067C62.0893 46.8622 60.7728 50.6085 58.5551 53.6479L69.7409 64.8426C70.8454 65.947 70.8454 67.7407 69.7409 68.8451C68.6365 69.9495 66.8429 69.9495 65.7384 68.8451L54.5526 57.6504C51.5132 59.877 47.7669 61.1847 43.7113 61.1847C33.5593 61.1847 25.3334 52.9588 25.3334 42.8067C25.3334 32.6546 33.5593 24.4287 43.7113 24.4287C53.8634 24.4287 62.0893 32.6546 62.0893 42.8067ZM43.7113 55.5299C45.3822 55.5299 47.0367 55.2008 48.5803 54.5614C50.124 53.922 51.5266 52.9848 52.708 51.8034C53.8895 50.6219 54.8267 49.2193 55.4661 47.6756C56.1055 46.132 56.4346 44.4775 56.4346 42.8067C56.4346 41.1359 56.1055 39.4814 55.4661 37.9377C54.8267 36.3941 53.8895 34.9915 52.708 33.81C51.5266 32.6286 50.124 31.6914 48.5803 31.052C47.0367 30.4126 45.3822 30.0835 43.7113 30.0835C42.0405 30.0835 40.386 30.4126 38.8424 31.052C37.2987 31.6914 35.8961 32.6286 34.7147 33.81C33.5332 34.9915 32.596 36.3941 31.9566 37.9377C31.3172 39.4814 30.9881 41.1359 30.9881 42.8067C30.9881 44.4775 31.3172 46.132 31.9566 47.6756C32.596 49.2193 33.5332 50.6219 34.7147 51.8034C35.8961 52.9848 37.2987 53.922 38.8424 54.5614C40.386 55.2008 42.0405 55.5299 43.7113 55.5299Z" fill="#003844"/>
</g>
<defs>
<clipPath id="clip0_39_1458">
<rect width="45.2381" height="45.2381" fill="white" transform="translate(25.3334 24.4287)"/>
</clipPath>
</defs>
</svg>
