<svg width="35" height="40" viewBox="0 0 35 40" fill="none" xmlns="http://www.w3.org/2000/svg">
<path d="M29.7578 7.58594C26.4844 4.30469 22.125 2.5 17.4922 2.5C7.92969 2.5 0.148438 10.2812 0.148438 19.8438C0.148438 22.8984 0.945312 25.8828 2.46094 28.5156L0 37.5L9.19531 35.0859C11.7266 36.4688 14.5781 37.1953 17.4844 37.1953H17.4922C27.0469 37.1953 35 29.4141 35 19.8516C35 15.2188 33.0312 10.8672 29.7578 7.58594ZM17.4922 34.2734C14.8984 34.2734 12.3594 33.5781 10.1484 32.2656L9.625 31.9531L4.17188 33.3828L5.625 28.0625L5.28125 27.5156C3.83594 25.2188 3.07812 22.5703 3.07812 19.8438C3.07812 11.8984 9.54688 5.42969 17.5 5.42969C21.3516 5.42969 24.9688 6.92969 27.6875 9.65625C30.4062 12.3828 32.0781 16 32.0703 19.8516C32.0703 27.8047 25.4375 34.2734 17.4922 34.2734ZM25.3984 23.4766C24.9688 23.2578 22.8359 22.2109 22.4375 22.0703C22.0391 21.9219 21.75 21.8516 21.4609 22.2891C21.1719 22.7266 20.3438 23.6953 20.0859 23.9922C19.8359 24.2812 19.5781 24.3203 19.1484 24.1016C16.6016 22.8281 14.9297 21.8281 13.25 18.9453C12.8047 18.1797 13.6953 18.2344 14.5234 16.5781C14.6641 16.2891 14.5937 16.0391 14.4844 15.8203C14.375 15.6016 13.5078 13.4688 13.1484 12.6016C12.7969 11.7578 12.4375 11.875 12.1719 11.8594C11.9219 11.8438 11.6328 11.8438 11.3438 11.8438C11.0547 11.8438 10.5859 11.9531 10.1875 12.3828C9.78906 12.8203 8.67188 13.8672 8.67188 16C8.67188 18.1328 10.2266 20.1953 10.4375 20.4844C10.6562 20.7734 13.4922 25.1484 17.8438 27.0312C20.5938 28.2188 21.6719 28.3203 23.0469 28.1172C23.8828 27.9922 25.6094 27.0703 25.9688 26.0547C26.3281 25.0391 26.3281 24.1719 26.2188 23.9922C26.1172 23.7969 25.8281 23.6875 25.3984 23.4766Z" fill="white"/>
</svg>
