<svg width="61" height="62" viewBox="0 0 61 62" fill="none" xmlns="http://www.w3.org/2000/svg">
<g clip-path="url(#clip0_223_11)">
<path d="M0.80957 17.0825C0.80957 15.8781 1.73397 14.9092 2.88298 14.9092H6.81383C8.71446 14.9092 10.3991 16.0683 11.1853 17.8069H46.6925C48.9646 17.8069 50.6233 20.0708 50.0272 22.3708L46.4851 36.1622C45.7508 39.0056 43.2886 40.9887 40.4809 40.9887H15.5567L16.0232 43.5695C16.2133 44.5928 17.0686 45.3353 18.0621 45.3353H42.969C44.118 45.3353 45.0424 46.3042 45.0424 47.5086C45.0424 48.713 44.118 49.6819 42.969 49.6819H18.0621C15.0729 49.6819 12.5071 47.4543 11.9542 44.3845L7.49633 19.8444C7.43585 19.5003 7.15076 19.2558 6.81383 19.2558H2.88298C1.73397 19.2558 0.80957 18.2868 0.80957 17.0825ZM11.8678 56.9262C11.8678 56.3554 11.975 55.7902 12.1834 55.2629C12.3918 54.7355 12.6973 54.2563 13.0823 53.8527C13.4674 53.4491 13.9246 53.1289 14.4277 52.9105C14.9308 52.6921 15.47 52.5796 16.0146 52.5796C16.5592 52.5796 17.0984 52.6921 17.6015 52.9105C18.1046 53.1289 18.5618 53.4491 18.9468 53.8527C19.3319 54.2563 19.6374 54.7355 19.8458 55.2629C20.0542 55.7902 20.1614 56.3554 20.1614 56.9262C20.1614 57.497 20.0542 58.0622 19.8458 58.5896C19.6374 59.1169 19.3319 59.5961 18.9468 59.9997C18.5618 60.4033 18.1046 60.7235 17.6015 60.942C17.0984 61.1604 16.5592 61.2728 16.0146 61.2728C15.47 61.2728 14.9308 61.1604 14.4277 60.942C13.9246 60.7235 13.4674 60.4033 13.0823 59.9997C12.6973 59.5961 12.3918 59.1169 12.1834 58.5896C11.975 58.0622 11.8678 57.497 11.8678 56.9262ZM40.8955 52.5796C41.9954 52.5796 43.0501 53.0376 43.8278 53.8527C44.6055 54.6679 45.0424 55.7734 45.0424 56.9262C45.0424 58.079 44.6055 59.1846 43.8278 59.9997C43.0501 60.8149 41.9954 61.2728 40.8955 61.2728C39.7957 61.2728 38.741 60.8149 37.9633 59.9997C37.1856 59.1846 36.7487 58.079 36.7487 56.9262C36.7487 55.7734 37.1856 54.6679 37.9633 53.8527C38.741 53.0376 39.7957 52.5796 40.8955 52.5796Z" fill="#003844"/>
</g>
<circle cx="48.5" cy="14.5" r="12.5" fill="#006C67"/>
<path d="M47.38 20.1V10.3H49.88V20.1H47.38ZM43.9 16.5V14.02H53.52V16.5H43.9Z" fill="white"/>
<defs>
<clipPath id="clip0_223_11">
<rect width="49.7619" height="46.3636" fill="white" transform="translate(0.80957 14.9092)"/>
</clipPath>
</defs>
</svg>
