<svg width="272" height="283" viewBox="0 0 272 283" fill="none" xmlns="http://www.w3.org/2000/svg">
<g clip-path="url(#clip0_1_43)">
<path d="M32.9151 12.02H186.257C224.809 12.02 256.105 43.3157 256.105 81.8674V197.255C256.105 244.226 217.969 282.361 170.998 282.361H0V44.9352C0 26.7678 14.7477 12.02 32.9151 12.02Z" fill="#8884FF"/>
<path d="M40.7764 0.668213H194.118C232.67 0.668213 263.966 31.9639 263.966 70.5156V185.903C263.966 232.874 225.831 271.009 178.86 271.009H7.86127V33.5834C7.86127 15.416 22.609 0.668213 40.7764 0.668213Z" fill="white"/>
<path d="M52.8199 0H202.153C240.704 0 272 31.2957 272 69.8474V166.989C272 213.96 233.865 252.095 186.894 252.095H19.9048V32.9151C19.9048 14.7477 34.6525 0 52.8199 0Z" fill="#8884FF"/>
<path d="M93.2191 102.983C93.3606 119.806 94.8228 138.005 94.0288 157.155C89.5636 152.98 85.6015 149.341 81.7573 145.591C81.2856 145.127 81.325 144.034 81.2935 143.225C80.8454 132.077 80.3973 120.93 80.02 109.775C79.6819 99.8068 79.3911 89.8308 79.1552 79.8627C78.9744 72.2844 82.6378 66.8837 89.2727 63.6449C95.8447 60.4375 103.486 61.7189 108.737 66.8602C125.891 83.644 142.942 100.53 160.063 117.345C161.353 118.611 161.832 119.947 161.832 121.755C161.754 140.41 161.73 159.065 161.777 177.72C161.777 179.662 161.274 181.108 159.82 182.405C156.974 184.921 154.215 187.539 151.479 190.18C150.433 191.194 149.254 191.666 147.926 191.241C146.33 190.738 146.967 189.244 146.959 188.167C146.919 167.61 146.896 147.053 146.974 126.496C146.982 124.177 146.322 122.526 144.655 120.891C130.159 106.654 115.749 92.3228 101.308 78.031C100.467 77.1977 99.6181 76.2937 98.5962 75.7513C96.6937 74.7372 94.8621 75.1145 93.5021 76.8283C92.1814 78.4949 91.977 80.2872 93.4549 82.001C94.1545 82.8107 94.9407 83.5418 95.6875 84.3043C107.566 96.4579 119.421 108.627 131.346 120.733C132.777 122.188 133.484 123.619 133.477 125.71C133.406 146.503 133.445 167.296 133.406 188.097C133.406 189.174 134.05 190.636 132.502 191.202C131.165 191.689 129.994 191.218 128.956 190.188C126.087 187.342 123.21 184.504 120.223 181.784C118.863 180.55 118.973 179.08 118.973 177.539C118.973 161.738 118.941 145.929 119.012 130.128C119.02 127.95 118.532 126.307 116.881 124.798C108.808 117.44 100.821 109.987 93.2191 102.967V102.983Z" fill="white"/>
<path d="M188.27 156.148C187.484 137.179 188.985 119.004 189.127 100.679C180.55 108.902 172.209 116.897 163.782 124.978C163.263 124.821 163.255 124.122 163.381 123.611C164.332 119.704 163.043 116.716 159.867 114.366C157.839 112.864 159.057 111.622 160.307 110.333C169.387 100.939 178.419 91.4973 187.531 82.1267C189.465 80.1378 191.414 78.3218 188.844 75.5625C186.768 73.3299 184.591 73.7702 181.564 76.7496C172.256 85.908 162.87 94.9877 153.617 104.209C151.943 105.883 150.944 105.899 149.435 104.138C147.289 101.623 143.366 99.4765 143.067 96.843C142.753 94.0208 147.022 91.9769 149.341 89.6578C157.501 81.5214 165.7 73.4243 174.041 65.4765C179.394 60.3746 185.888 59.4705 192.554 62.2298C199.236 64.9891 203.45 70.2405 203.316 77.6222C202.97 96.9688 201.909 116.315 201.712 135.662C201.642 142.368 199.362 147.132 194.15 150.936C192.255 152.32 190.612 154.057 188.27 156.148Z" fill="white"/>
</g>
<defs>
<clipPath id="clip0_1_43">
<rect width="272" height="282.361" fill="white"/>
</clipPath>
</defs>
</svg>