<svg width="256" height="256" viewBox="0 0 256 256" fill="none" xmlns="http://www.w3.org/2000/svg">
<path d="M108 84C108 80.8355 108.938 77.7421 110.696 75.1109C112.455 72.4797 114.953 70.4289 117.877 69.2179C120.801 68.0069 124.018 67.6901 127.121 68.3074C130.225 68.9248 133.076 70.4487 135.314 72.6863C137.551 74.9239 139.075 77.7749 139.693 80.8786C140.31 83.9823 139.993 87.1993 138.782 90.1229C137.571 93.0466 135.52 95.5454 132.889 97.3035C130.258 99.0616 127.164 100 124 100C119.757 100 115.687 98.3143 112.686 95.3137C109.686 92.3131 108 88.2435 108 84ZM236 128C236 149.36 229.666 170.241 217.799 188.002C205.932 205.762 189.064 219.605 169.33 227.779C149.595 235.953 127.88 238.092 106.93 233.925C85.9803 229.758 66.7365 219.472 51.6325 204.368C36.5284 189.263 26.2424 170.02 22.0752 149.07C17.908 128.12 20.0467 106.405 28.221 86.6702C36.3953 66.9358 50.2379 50.0685 67.9984 38.2013C85.7589 26.3341 106.64 20 128 20C156.634 20.0318 184.085 31.4205 204.332 51.6675C224.579 71.9146 235.968 99.3664 236 128ZM212 128C212 111.386 207.073 95.1458 197.843 81.3321C188.613 67.5184 175.494 56.7519 160.145 50.3941C144.796 44.0364 127.907 42.3729 111.612 45.614C95.318 48.8552 80.3506 56.8554 68.603 68.603C56.8554 80.3506 48.8552 95.318 45.614 111.612C42.3729 127.907 44.0363 144.796 50.3941 160.145C56.7519 175.494 67.5184 188.613 81.3321 197.843C95.1458 207.073 111.386 212 128 212C150.271 211.976 171.623 203.119 187.371 187.371C203.119 171.623 211.976 150.271 212 128ZM140 164.68V132C140 126.696 137.893 121.609 134.142 117.858C130.391 114.107 125.304 112 120 112C117.166 111.996 114.422 112.995 112.254 114.82C110.086 116.645 108.634 119.178 108.155 121.971C107.676 124.764 108.201 127.637 109.637 130.08C111.072 132.523 113.327 134.38 116 135.32V168C116 173.304 118.107 178.391 121.858 182.142C125.609 185.893 130.696 188 136 188C138.834 188.004 141.578 187.005 143.746 185.18C145.914 183.355 147.366 180.822 147.845 178.029C148.324 175.236 147.799 172.363 146.363 169.92C144.928 167.477 142.673 165.62 140 164.68Z" fill="black"/>
</svg>
