<svg width="26" height="26" viewBox="0 0 26 26" fill="none" xmlns="http://www.w3.org/2000/svg">
<g clip-path="url(#clip0_108_21)">
<path fill-rule="evenodd" clip-rule="evenodd" d="M10.897 8.7C10.346 9.113 10.097 9.608 10.097 10.07C10.097 10.533 10.346 11.028 10.897 11.442C11.449 11.856 12.257 12.142 13.192 12.142C13.4572 12.142 13.7116 12.2474 13.8991 12.4349C14.0866 12.6224 14.192 12.8768 14.192 13.142C14.192 13.4072 14.0866 13.6616 13.8991 13.8491C13.7116 14.0366 13.4572 14.142 13.192 14.142C11.866 14.142 10.627 13.74 9.69698 13.042C8.76698 12.344 8.09698 11.304 8.09698 10.071C8.09698 8.837 8.76698 7.797 9.69698 7.099C10.627 6.402 11.867 6 13.192 6C15.245 6 17.186 6.983 17.958 8.62C18.0711 8.86002 18.0842 9.13515 17.9945 9.38485C17.9048 9.63456 17.7195 9.83839 17.4795 9.9515C17.2395 10.0646 16.9643 10.0777 16.7146 9.98801C16.4649 9.89828 16.2611 9.71302 16.148 9.473C15.798 8.726 14.706 8 13.193 8C12.258 8 11.449 8.286 10.897 8.7Z" fill="black"/>
<path fill-rule="evenodd" clip-rule="evenodd" d="M15.157 17.583C15.708 17.17 15.956 16.675 15.956 16.213C15.956 15.749 15.708 15.254 15.156 14.841C14.605 14.427 13.796 14.141 12.862 14.141C12.5968 14.141 12.3424 14.0356 12.1549 13.8481C11.9674 13.6606 11.862 13.4062 11.862 13.141C11.862 12.8758 11.9674 12.6214 12.1549 12.4339C12.3424 12.2464 12.5968 12.141 12.862 12.141C14.188 12.141 15.427 12.543 16.357 13.241C17.287 13.939 17.956 14.979 17.956 16.212C17.956 17.445 17.287 18.486 16.356 19.183C15.426 19.881 14.188 20.283 12.862 20.283C10.809 20.283 8.867 19.3 8.096 17.662C7.98289 17.4221 7.9697 17.1471 8.05934 16.8975C8.14898 16.6479 8.33411 16.4441 8.574 16.331C8.81389 16.2179 9.08889 16.2047 9.3385 16.2943C9.58811 16.384 9.79189 16.5691 9.905 16.809C10.257 17.557 11.349 18.283 12.862 18.283C13.797 18.283 14.605 17.997 15.157 17.583ZM13 4C13.2652 4 13.5196 4.10536 13.7071 4.29289C13.8946 4.48043 14 4.73478 14 5V6C14 6.26522 13.8946 6.51957 13.7071 6.70711C13.5196 6.89464 13.2652 7 13 7C12.7348 7 12.4804 6.89464 12.2929 6.70711C12.1054 6.51957 12 6.26522 12 6V5C12 4.73478 12.1054 4.48043 12.2929 4.29289C12.4804 4.10536 12.7348 4 13 4Z" fill="black"/>
<path fill-rule="evenodd" clip-rule="evenodd" d="M13 19C13.2652 19 13.5196 19.1054 13.7071 19.2929C13.8946 19.4804 14 19.7348 14 20V21C14 21.2652 13.8946 21.5196 13.7071 21.7071C13.5196 21.8946 13.2652 22 13 22C12.7348 22 12.4804 21.8946 12.2929 21.7071C12.1054 21.5196 12 21.2652 12 21V20C12 19.7348 12.1054 19.4804 12.2929 19.2929C12.4804 19.1054 12.7348 19 13 19Z" fill="black"/>
<path fill-rule="evenodd" clip-rule="evenodd" d="M13 24C19.075 24 24 19.075 24 13C24 6.925 19.075 2 13 2C6.925 2 2 6.925 2 13C2 19.075 6.925 24 13 24ZM13 26C20.18 26 26 20.18 26 13C26 5.82 20.18 0 13 0C5.82 0 0 5.82 0 13C0 20.18 5.82 26 13 26Z" fill="black"/>
</g>
<defs>
<clipPath id="clip0_108_21">
<rect width="26" height="26" fill="white"/>
</clipPath>
</defs>
</svg>
