<svg width="35" height="38" viewBox="0 0 35 38" fill="none" xmlns="http://www.w3.org/2000/svg">
<g clip-path="url(#clip0_73_596)">
<path d="M17.5076 10.4651C12.5389 10.4651 8.53108 14.2726 8.53108 18.9929C8.53108 23.7132 12.5389 27.5206 17.5076 27.5206C22.4764 27.5206 26.4842 23.7132 26.4842 18.9929C26.4842 14.2726 22.4764 10.4651 17.5076 10.4651ZM17.5076 24.537C14.2967 24.537 11.6717 22.0507 11.6717 18.9929C11.6717 15.9351 14.2889 13.4487 17.5076 13.4487C20.7264 13.4487 23.3436 15.9351 23.3436 18.9929C23.3436 22.0507 20.7186 24.537 17.5076 24.537ZM28.9451 10.1163C28.9451 11.2222 28.0076 12.1054 26.8514 12.1054C25.6873 12.1054 24.7576 11.2147 24.7576 10.1163C24.7576 9.01787 25.6951 8.12725 26.8514 8.12725C28.0076 8.12725 28.9451 9.01787 28.9451 10.1163ZM34.8905 12.1351C34.7576 9.47061 34.117 7.11045 32.0623 5.16592C30.0155 3.22139 27.5311 2.61279 24.7264 2.4792C21.8358 2.32334 13.1717 2.32334 10.2811 2.4792C7.48421 2.60537 4.99983 3.21396 2.94514 5.1585C0.890457 7.10303 0.257645 9.46318 0.11702 12.1276C-0.0470428 14.8737 -0.0470428 23.1046 0.11702 25.8507C0.249832 28.5151 0.890457 30.8753 2.94514 32.8198C4.99983 34.7644 7.47639 35.3729 10.2811 35.5065C13.1717 35.6624 21.8358 35.6624 24.7264 35.5065C27.5311 35.3804 30.0155 34.7718 32.0623 32.8198C34.1092 30.8753 34.7498 28.5151 34.8905 25.8507C35.0545 23.1046 35.0545 14.8812 34.8905 12.1351ZM31.1561 28.7972C30.5467 30.2519 29.367 31.3726 27.828 31.9589C25.5233 32.8272 20.0545 32.6269 17.5076 32.6269C14.9608 32.6269 9.48421 32.8198 7.18733 31.9589C5.65608 31.38 4.47639 30.2593 3.85921 28.7972C2.94514 26.6077 3.15608 21.4124 3.15608 18.9929C3.15608 16.5733 2.95296 11.3706 3.85921 9.18857C4.46858 7.73389 5.64827 6.61318 7.18733 6.02686C9.49202 5.1585 14.9608 5.35889 17.5076 5.35889C20.0545 5.35889 25.5311 5.16592 27.828 6.02686C29.3592 6.60576 30.5389 7.72646 31.1561 9.18857C32.0701 11.378 31.8592 16.5733 31.8592 18.9929C31.8592 21.4124 32.0701 26.6151 31.1561 28.7972Z" fill="white"/>
</g>
<defs>
<clipPath id="clip0_73_596">
<rect width="35" height="38" fill="white"/>
</clipPath>
</defs>
</svg>
