<?xml version="1.0" encoding="UTF-8"?>
<svg id="Capa_2" data-name="Capa 2" xmlns="http://www.w3.org/2000/svg" viewBox="0 0 872 255.08">
  <defs>
    <style>
      .cls-1 {
        fill: #8884ff;
      }

      .cls-1, .cls-2, .cls-3 {
        stroke-width: 0px;
      }

      .cls-2 {
        fill: #003844;
      }

      .cls-3 {
        fill: #006c67;
      }
    </style>
  </defs>
  <g id="Capa_1-2" data-name="Capa 1">
    <g>
      <g>
        <path class="cls-2" d="m27.45,82.52c.27,32.84,3.13,68.35,1.59,105.72-8.71-8.15-16.44-15.25-23.95-22.58-.93-.9-.84-3.04-.9-4.61-.87-21.76-1.75-43.51-2.48-65.27C1.04,76.33.47,56.87.01,37.41-.34,22.61,6.81,12.08,19.76,5.76c12.82-6.26,27.73-3.75,37.99,6.28,33.48,32.75,66.75,65.7,100.16,98.52,2.51,2.46,3.46,5.07,3.44,8.6-.16,36.41-.2,72.82-.11,109.22,0,3.79-.98,6.62-3.83,9.14-5.55,4.92-10.95,10.01-16.28,15.17-2.04,1.98-4.34,2.9-6.93,2.08-3.12-.99-1.88-3.9-1.88-5.99-.07-40.12-.12-80.24.03-120.36.02-4.53-1.27-7.74-4.53-10.94-28.29-27.79-56.41-55.76-84.6-83.65-1.64-1.62-3.3-3.39-5.29-4.45-3.71-1.97-7.29-1.25-9.95,2.1-2.58,3.25-2.98,6.74-.09,10.1,1.36,1.58,2.89,3.01,4.35,4.5,23.18,23.71,46.31,47.47,69.58,71.09,2.79,2.83,4.18,5.63,4.16,9.71-.14,40.58-.06,81.16-.13,121.75,0,2.1,1.25,4.96-1.77,6.07-2.6.95-4.89.03-6.91-1.97-5.6-5.55-11.22-11.09-17.05-16.39-2.65-2.41-2.45-5.28-2.45-8.28,0-30.84-.07-61.69.08-92.53.02-4.24-.94-7.46-4.16-10.4-15.75-14.36-31.35-28.9-46.17-42.61Z"/>
        <path class="cls-3" d="m212.94,186.28c-1.53-37.02,1.39-72.5,1.67-108.26-16.74,16.05-33.01,31.66-49.46,47.43-1.02-.31-1.03-1.66-.78-2.67,1.85-7.62-.65-13.45-6.86-18.05-3.96-2.93-1.58-5.36.85-7.87,17.73-18.33,35.35-36.76,53.13-55.04,3.78-3.89,7.58-7.43,2.56-12.81-4.06-4.35-8.3-3.5-14.21,2.32-18.17,17.87-36.49,35.59-54.53,53.58-3.27,3.26-5.22,3.3-8.16-.14-4.2-4.9-11.85-9.1-12.42-14.23-.62-5.51,7.71-9.5,12.24-14.02,15.92-15.88,31.92-31.68,48.2-47.2,10.46-9.96,23.11-11.72,36.13-6.34,13.04,5.39,21.27,15.64,21.01,30.03-.68,37.76-2.75,75.51-3.13,113.27-.13,13.08-4.58,22.38-14.76,29.81-3.7,2.7-6.9,6.09-11.47,10.18Z"/>
      </g>
      <g>
        <path class="cls-2" d="m313.51,112.75l17.46-99.1h19.06l23.28,66.21,23.14-66.21h19.06l17.61,99.1h-21.39l-6.84-44.24c-.97-6.4-1.8-12.61-2.47-18.63-.87,3.11-1.77,6.16-2.69,9.17-.92,3.01-1.92,6.06-2.98,9.17l-15.13,43.36h-16.73l-15.13-43.36c-1.07-3.1-2.06-6.13-2.98-9.09-.92-2.96-1.82-5.94-2.69-8.95-.68,5.92-1.5,12.03-2.47,18.33l-6.84,44.24h-21.25Z"/>
        <path class="cls-2" d="m475.03,114.06c-7.18,0-13.44-1.5-18.77-4.51-5.34-3.01-9.48-7.28-12.44-12.81-2.96-5.53-4.44-12.03-4.44-19.5s1.48-13.87,4.44-19.5c2.96-5.63,7.11-10.02,12.44-13.17,5.33-3.15,11.59-4.73,18.77-4.73s13.58,1.63,18.92,4.88c5.33,3.25,9.46,7.69,12.37,13.32,2.91,5.63,4.37,11.93,4.37,18.92,0,1.36-.05,2.6-.15,3.71-.1,1.12-.2,2.01-.29,2.69h-51.22c.48,4.56,2.23,8.08,5.24,10.55,3.01,2.47,6.98,3.71,11.93,3.71,4.56,0,8.17-.92,10.84-2.76,2.67-1.84,4.92-4.12,6.77-6.84l14.41,8c-3.01,5.73-7.35,10.16-13.02,13.31-5.68,3.15-12.39,4.73-20.15,4.73Zm.14-57.77c-4.17,0-7.64,1.07-10.4,3.2-2.76,2.13-4.58,5.04-5.46,8.73h31.43c-.87-3.59-2.6-6.48-5.16-8.66-2.57-2.18-6.04-3.27-10.41-3.27Z"/>
        <path class="cls-2" d="m537.02,41.59l2.18,7.42c2.13-2.23,4.82-4.32,8.08-6.26,3.25-1.94,6.62-2.91,10.11-2.91,3.2,0,5.62.44,7.28,1.31v19.35h-4.8c-7.86,0-13.63,1.65-17.32,4.95v47.29h-21.25V41.59h15.72Z"/>
        <path class="cls-2" d="m603.81,114.5c-7.28,0-13.63-1.6-19.06-4.8-5.43-3.2-9.68-7.62-12.73-13.24-3.06-5.62-4.58-12.08-4.58-19.35s1.53-13.7,4.58-19.28c3.06-5.58,7.3-9.97,12.73-13.17,5.43-3.2,11.79-4.8,19.06-4.8,7.86,0,14.72,1.94,20.59,5.82,5.87,3.88,10.06,9.12,12.59,15.72l-19.21,8.58c-1.36-3.1-3.15-5.48-5.38-7.13-2.23-1.65-5.04-2.47-8.44-2.47-4.37,0-7.98,1.5-10.84,4.51-2.86,3.01-4.29,7.08-4.29,12.22s1.43,9.34,4.29,12.3c2.86,2.96,6.48,4.44,10.84,4.44,3.39,0,6.21-.82,8.44-2.47,2.23-1.65,4.02-3.98,5.38-6.99l19.21,8.44c-2.52,6.5-6.74,11.74-12.66,15.72-5.92,3.98-12.76,5.97-20.52,5.97Z"/>
        <path class="cls-2" d="m667.11,114.64c-7.76,0-14.02-2.18-18.77-6.55-4.75-4.37-7.13-10.14-7.13-17.32,0-4.95,1.14-9.22,3.42-12.81,2.28-3.59,5.41-6.35,9.39-8.29,3.98-1.94,8.39-2.91,13.24-2.91,6.79,0,12.37,1.5,16.73,4.51v-4.07c0-2.62-.95-4.9-2.84-6.84-1.89-1.94-4.83-2.91-8.8-2.91-2.62,0-5.63.32-9.02.95-3.4.63-6.89,1.82-10.48,3.57l-6.26-15.13c4.27-2.13,8.85-3.83,13.75-5.09,4.9-1.26,9.92-1.89,15.06-1.89,9.9,0,17.34,2.6,22.34,7.79,5,5.19,7.49,12.01,7.49,20.45v44.67h-17.32l-1.6-4.8c-4.66,4.46-11.06,6.69-19.21,6.69Zm6.55-15.13c3.2,0,5.75-.8,7.64-2.4,1.89-1.6,2.84-3.71,2.84-6.33s-.95-4.73-2.84-6.33-4.44-2.4-7.64-2.4-5.72.8-7.57,2.4c-1.84,1.6-2.76,3.71-2.76,6.33s.92,4.73,2.76,6.33c1.84,1.6,4.37,2.4,7.57,2.4Z"/>
        <path class="cls-2" d="m747.87,114.5c-6.4,0-12.08-1.6-17.03-4.8-4.95-3.2-8.8-7.62-11.57-13.24-2.76-5.62-4.15-12.08-4.15-19.35s1.41-13.73,4.22-19.35c2.81-5.63,6.69-10.02,11.64-13.17,4.95-3.15,10.62-4.73,17.03-4.73,7.08,0,13.1,1.8,18.04,5.38V13.66h21.25v99.1h-15.86l-2.04-7.13c-5.63,5.92-12.81,8.88-21.54,8.88Zm4.08-19.94c4.37,0,7.98-1.62,10.84-4.88,2.86-3.25,4.29-7.44,4.29-12.59s-1.43-9.19-4.29-12.44c-2.86-3.25-6.48-4.87-10.84-4.87s-8.1,1.62-10.91,4.87c-2.82,3.25-4.22,7.4-4.22,12.44s1.4,9.34,4.22,12.59c2.81,3.25,6.45,4.88,10.91,4.88Z"/>
        <path class="cls-2" d="m834.6,114.5c-7.47,0-14.02-1.58-19.65-4.73-5.63-3.15-9.99-7.54-13.1-13.17-3.11-5.62-4.66-12.08-4.66-19.35s1.55-13.87,4.66-19.5c3.1-5.63,7.47-10.02,13.1-13.17,5.62-3.15,12.17-4.73,19.65-4.73s13.87,1.58,19.5,4.73c5.62,3.15,10.02,7.54,13.17,13.17,3.15,5.63,4.73,12.13,4.73,19.5s-1.58,13.73-4.73,19.35c-3.15,5.63-7.54,10.02-13.17,13.17-5.63,3.15-12.13,4.73-19.5,4.73Zm0-20.66c4.66,0,8.46-1.53,11.42-4.58,2.96-3.06,4.44-7.11,4.44-12.15s-1.48-8.97-4.44-12.08c-2.96-3.1-6.77-4.66-11.42-4.66s-8.59,1.53-11.5,4.58c-2.91,3.06-4.37,7.11-4.37,12.15s1.46,9.09,4.37,12.15,6.74,4.58,11.5,4.58Z"/>
        <path class="cls-2" d="m379.43,232.75h-60.24v-99.1h21.25v78.58h39v20.52Z"/>
        <path class="cls-2" d="m388.45,139.18c0-3.78,1.14-6.84,3.42-9.17,2.28-2.33,5.31-3.49,9.09-3.49s6.81,1.16,9.09,3.49c2.28,2.33,3.42,5.38,3.42,9.17s-1.14,6.67-3.42,8.95-5.31,3.42-9.09,3.42-6.82-1.14-9.09-3.42c-2.28-2.28-3.42-5.26-3.42-8.95Zm23.14,93.57h-21.25v-71.16h21.25v71.16Z"/>
        <path class="cls-2" d="m427.01,232.75v-99.1h21.25v31.58c4.95-3.59,10.96-5.38,18.04-5.38,6.4,0,12.08,1.58,17.03,4.73,4.95,3.15,8.83,7.54,11.64,13.17,2.81,5.63,4.22,12.08,4.22,19.35s-1.38,13.73-4.15,19.35c-2.76,5.63-6.62,10.04-11.57,13.24s-10.62,4.8-17.03,4.8c-8.73,0-15.86-2.96-21.39-8.88l-2.18,7.13h-15.86Zm35.36-18.19c4.46,0,8.1-1.62,10.91-4.88,2.81-3.25,4.22-7.44,4.22-12.59s-1.41-9.19-4.22-12.44c-2.81-3.25-6.45-4.87-10.91-4.87s-7.86,1.62-10.77,4.87c-2.91,3.25-4.37,7.4-4.37,12.44s1.46,9.34,4.37,12.59c2.91,3.25,6.5,4.88,10.77,4.88Z"/>
        <path class="cls-2" d="m525.09,161.59l2.18,7.42c2.13-2.23,4.82-4.32,8.08-6.26,3.25-1.94,6.62-2.91,10.11-2.91,3.2,0,5.62.44,7.28,1.31v19.35h-4.8c-7.86,0-13.63,1.65-17.32,4.95v47.29h-21.25v-71.16h15.72Z"/>
        <path class="cls-2" d="m593.05,234.5c-7.47,0-14.02-1.58-19.65-4.73-5.63-3.15-9.99-7.54-13.1-13.17-3.11-5.62-4.66-12.08-4.66-19.35s1.55-13.87,4.66-19.5c3.1-5.63,7.47-10.02,13.1-13.17,5.62-3.15,12.17-4.73,19.65-4.73s13.87,1.58,19.5,4.73c5.62,3.15,10.02,7.54,13.17,13.17,3.15,5.63,4.73,12.13,4.73,19.5s-1.58,13.73-4.73,19.35c-3.15,5.63-7.54,10.02-13.17,13.17-5.63,3.15-12.13,4.73-19.5,4.73Zm0-20.66c4.66,0,8.46-1.53,11.42-4.58,2.96-3.06,4.44-7.11,4.44-12.15s-1.48-8.97-4.44-12.08c-2.96-3.1-6.77-4.66-11.42-4.66s-8.59,1.53-11.5,4.58c-2.91,3.06-4.37,7.11-4.37,12.15s1.46,9.09,4.37,12.15,6.74,4.58,11.5,4.58Z"/>
        <path class="cls-1" d="m651.54,234.21c-3.98,0-7.42-1.46-10.33-4.37-2.91-2.91-4.37-6.35-4.37-10.33s1.46-7.54,4.37-10.4c2.91-2.86,6.35-4.29,10.33-4.29s7.69,1.43,10.55,4.29c2.86,2.86,4.29,6.33,4.29,10.4s-1.43,7.42-4.29,10.33c-2.86,2.91-6.38,4.37-10.55,4.37Z"/>
      </g>
    </g>
  </g>
</svg>