<svg width="417" height="124" viewBox="0 0 417 124" fill="none" xmlns="http://www.w3.org/2000/svg">
<g clip-path="url(#clip0_53_92)">
<path d="M13.1269 40.1152C13.256 56.0794 14.6237 73.3416 13.8872 91.508C9.72202 87.5461 6.02545 84.0946 2.43408 80.5314C1.98935 80.0938 2.03238 79.0535 2.00369 78.2903C1.58765 67.7123 1.16682 57.1392 0.817729 46.5611C0.497327 37.1061 0.224747 27.6461 0.00476982 18.1862C-0.162604 10.9916 3.25661 5.87273 9.44944 2.80044C15.5801 -0.242681 22.7102 0.977485 27.6167 5.85329C43.6272 21.7738 59.5373 37.7915 75.5143 53.746C76.7146 54.9419 77.1689 56.2107 77.1593 57.9267C77.0828 75.6264 77.0637 93.3261 77.1067 111.021C77.1067 112.863 76.6381 114.239 75.2752 115.464C72.6211 117.856 70.0388 120.33 67.4899 122.839C66.5144 123.801 65.4145 124.248 64.1759 123.85C62.6839 123.368 63.2769 121.954 63.2769 120.938C63.2434 101.435 63.2195 81.9314 63.2912 62.4282C63.3008 60.226 62.6839 58.6656 61.1249 57.11C47.5963 43.6007 34.149 30.0038 20.6683 16.4459C19.884 15.6584 19.0902 14.7979 18.1385 14.2826C16.3644 13.325 14.6524 13.675 13.3803 15.3035C12.1465 16.8834 11.9553 18.58 13.3373 20.2133C13.9877 20.9814 14.7193 21.6766 15.4175 22.4009C26.5024 33.9268 37.5635 45.4771 48.6914 56.9593C50.0257 58.335 50.6904 59.6962 50.6808 61.6795C50.6138 81.4064 50.6521 101.133 50.6186 120.865C50.6186 121.886 51.2164 123.276 49.7722 123.816C48.5289 124.277 47.4337 123.83 46.4678 122.858C43.7898 120.16 41.1022 117.467 38.3143 114.89C37.047 113.719 37.1426 112.324 37.1426 110.865C37.1426 95.8734 37.1092 80.8765 37.1809 65.8845C37.1905 63.8233 36.7314 62.258 35.1915 60.8288C27.6597 53.8481 20.1996 46.7799 13.1125 40.1152H13.1269Z" fill="white"/>
<path d="M101.83 90.5548C101.099 72.5585 102.495 55.3109 102.629 37.9272C94.6236 45.7295 86.8431 53.3178 78.9765 60.984C78.4888 60.8333 78.484 60.177 78.6035 59.686C79.4882 55.9818 78.2927 53.1477 75.323 50.9115C73.4293 49.4872 74.5674 48.3059 75.7295 47.0857C84.2082 38.1751 92.6343 29.2159 101.137 20.3296C102.944 18.4386 104.762 16.7177 102.361 14.1024C100.42 11.9877 98.3919 12.4009 95.5657 15.2302C86.8766 23.9172 78.1158 32.5312 69.4888 41.2766C67.9251 42.8613 66.9926 42.8808 65.5866 41.2085C63.5781 38.8265 59.9198 36.7848 59.6473 34.291C59.3508 31.6125 63.3343 29.6728 65.5006 27.4756C73.1137 19.756 80.7651 12.0752 88.5503 4.53062C93.5524 -0.311157 99.6018 -1.16673 105.828 1.4486C112.064 4.0688 116 9.05155 115.875 16.0468C115.55 34.4028 114.56 52.7539 114.379 71.1099C114.316 77.4684 112.188 81.9893 107.32 85.6012C105.551 86.9137 104.02 88.5617 101.835 90.5499L101.83 90.5548Z" fill="white"/>
<path d="M149.924 54.8104L158.274 6.63574H167.388L178.521 38.8219L189.587 6.63574H198.701L207.123 54.8104H196.894L193.623 33.3044C193.159 30.1932 192.762 27.1744 192.442 24.2479C192.026 25.7598 191.595 27.2425 191.155 28.7057C190.715 30.1689 190.237 31.6516 189.73 33.1634L182.495 54.2417H174.494L167.259 33.1634C166.747 31.6564 166.274 30.1835 165.834 28.7446C165.394 27.3057 164.964 25.857 164.548 24.3938C164.222 27.2716 163.83 30.2418 163.366 33.3044L160.095 54.8104H149.934H149.924Z" fill="white"/>
<path d="M227.165 55.4472C223.731 55.4472 220.737 54.718 218.189 53.2548C215.635 51.7915 213.655 49.7158 212.24 47.0275C210.824 44.3393 210.116 41.1795 210.116 37.5481C210.116 33.9168 210.824 30.8056 212.24 28.0688C213.655 25.3319 215.64 23.1978 218.189 21.6665C220.737 20.1353 223.731 19.3672 227.165 19.3672C230.598 19.3672 233.659 20.1596 236.212 21.7395C238.761 23.3194 240.736 25.4777 242.128 28.2146C243.519 30.9515 244.218 34.014 244.218 37.412C244.218 38.0732 244.194 38.676 244.146 39.2155C244.098 39.76 244.05 40.1927 244.007 40.5232H219.513C219.743 42.7399 220.58 44.4511 222.019 45.6518C223.458 46.8525 225.357 47.4553 227.724 47.4553C229.905 47.4553 231.631 47.0081 232.908 46.1136C234.185 45.2192 235.261 44.1108 236.145 42.7885L243.036 46.6775C241.597 49.463 239.522 51.6165 236.81 53.1478C234.094 54.6791 230.885 55.4472 227.174 55.4472H227.165ZM227.232 27.3639C225.237 27.3639 223.578 27.884 222.258 28.9195C220.938 29.9549 220.068 31.3695 219.647 33.1633H234.677C234.261 31.4182 233.434 30.0133 232.21 28.9535C230.981 27.8938 229.321 27.3639 227.232 27.3639Z" fill="white"/>
<path d="M256.809 20.2179L257.851 23.8249C258.87 22.7409 260.156 21.7249 261.715 20.7818C263.27 19.8387 264.881 19.3672 266.55 19.3672C268.08 19.3672 269.238 19.5811 270.031 20.004V29.4105H267.736C263.977 29.4105 261.218 30.2126 259.453 31.8168V54.8055H249.291V20.2179H256.809Z" fill="white"/>
<path d="M288.749 55.6611C285.267 55.6611 282.231 54.8833 279.634 53.3277C277.037 51.7721 275.005 49.6235 273.546 46.8915C272.083 44.1595 271.356 41.0191 271.356 37.485C271.356 33.9509 272.088 30.8251 273.546 28.1126C275.01 25.4 277.037 23.2659 279.634 21.7103C282.231 20.1547 285.272 19.377 288.749 19.377C292.507 19.377 295.788 20.32 298.595 22.2062C301.402 24.0923 303.406 26.6396 304.616 29.848L295.429 34.0189C294.779 32.512 293.923 31.355 292.856 30.5529C291.79 29.7508 290.446 29.3522 288.82 29.3522C286.731 29.3522 285.004 30.0814 283.637 31.5446C282.269 33.0078 281.585 34.9863 281.585 37.485C281.585 39.9837 282.269 42.0254 283.637 43.4643C285.004 44.9032 286.735 45.6227 288.82 45.6227C290.441 45.6227 291.79 45.2241 292.856 44.422C293.923 43.6199 294.779 42.4872 295.429 41.024L304.616 45.1268C303.411 48.2866 301.393 50.8339 298.562 52.7687C295.731 54.7034 292.46 55.6708 288.749 55.6708V55.6611Z" fill="white"/>
<path d="M319.019 55.7292C315.308 55.7292 312.315 54.6694 310.043 52.5451C307.772 50.4207 306.634 47.6158 306.634 44.1254C306.634 41.7191 307.179 39.6434 308.269 37.8982C309.359 36.153 310.856 34.8113 312.76 33.8682C314.663 32.9252 316.772 32.4536 319.091 32.4536C322.338 32.4536 325.007 33.1828 327.092 34.646V32.6675C327.092 31.3939 326.637 30.2855 325.733 29.3425C324.83 28.3994 323.424 27.9278 321.525 27.9278C320.272 27.9278 318.833 28.0834 317.212 28.3897C315.586 28.6959 313.917 29.2744 312.2 30.1251L309.206 22.7701C311.248 21.7346 313.439 20.9082 315.782 20.2957C318.125 19.6832 320.526 19.377 322.984 19.377C327.718 19.377 331.276 20.6409 333.667 23.1638C336.058 25.6868 337.249 29.0022 337.249 33.105V54.8201H328.966L328.201 52.4867C325.973 54.6548 322.912 55.7389 319.015 55.7389L319.019 55.7292ZM322.152 48.3741C323.682 48.3741 324.901 47.9852 325.805 47.2074C326.709 46.4296 327.163 45.4039 327.163 44.1303C327.163 42.8566 326.709 41.8309 325.805 41.0531C324.901 40.2753 323.682 39.8864 322.152 39.8864C320.621 39.8864 319.416 40.2753 318.532 41.0531C317.652 41.8309 317.212 42.8566 317.212 44.1303C317.212 45.4039 317.652 46.4296 318.532 47.2074C319.411 47.9852 320.621 48.3741 322.152 48.3741Z" fill="white"/>
<path d="M357.64 55.6612C354.579 55.6612 351.863 54.8834 349.496 53.3278C347.129 51.7722 345.288 49.6235 343.963 46.8915C342.643 44.1595 341.978 41.0192 341.978 37.4851C341.978 33.951 342.653 30.8106 343.996 28.0786C345.34 25.3417 347.196 23.2077 349.563 21.6764C351.93 20.1451 354.641 19.377 357.707 19.377C361.092 19.377 363.971 20.252 366.334 21.9924V6.64062H376.496V54.8153H368.911L367.936 51.3493C365.243 54.2271 361.81 55.666 357.635 55.666L357.64 55.6612ZM359.591 45.9679C361.681 45.9679 363.407 45.1804 364.775 43.5956C366.142 42.0157 366.826 39.9789 366.826 37.4753C366.826 34.9718 366.142 33.0079 364.775 31.428C363.407 29.8481 361.676 29.0606 359.591 29.0606C357.506 29.0606 355.717 29.8481 354.373 31.428C353.025 33.0079 352.355 35.0253 352.355 37.4753C352.355 39.9254 353.025 42.0157 354.373 43.5956C355.717 45.1755 357.458 45.9679 359.591 45.9679Z" fill="white"/>
<path d="M399.115 55.6611C395.543 55.6611 392.41 54.893 389.718 53.3617C387.026 51.8304 384.941 49.6964 383.454 46.9595C381.966 44.2275 381.225 41.0871 381.225 37.553C381.225 34.0189 381.966 30.8105 383.454 28.0737C384.936 25.3368 387.026 23.2027 389.718 21.6714C392.406 20.1401 395.538 19.3721 399.115 19.3721C402.692 19.3721 405.748 20.1401 408.44 21.6714C411.128 23.2027 413.232 25.3368 414.738 28.0737C416.244 30.8105 417 33.9703 417 37.553C417 41.1358 416.244 44.2275 414.738 46.9595C413.232 49.6964 411.132 51.8304 408.44 53.3617C405.748 54.893 402.639 55.6611 399.115 55.6611ZM399.115 45.6178C401.343 45.6178 403.161 44.874 404.576 43.3914C405.992 41.9038 406.699 39.935 406.699 37.485C406.699 35.0349 405.992 33.1245 404.576 31.6126C403.161 30.1056 401.339 29.3473 399.115 29.3473C396.891 29.3473 395.007 30.0911 393.616 31.5737C392.224 33.0613 391.526 35.0301 391.526 37.4801C391.526 39.9302 392.224 41.899 393.616 43.3865C395.007 44.874 396.839 45.6129 399.115 45.6129V45.6178Z" fill="white"/>
<path d="M181.448 113.145H152.64V64.9707H162.802V103.17H181.452V113.145H181.448Z" fill="white"/>
<path d="M185.761 67.6582C185.761 65.8207 186.306 64.3331 187.397 63.2005C188.487 62.0678 189.936 61.5039 191.744 61.5039C193.551 61.5039 195 62.0678 196.09 63.2005C197.181 64.3331 197.726 65.8158 197.726 67.6582C197.726 69.5006 197.181 70.9006 196.09 72.009C195 73.1174 193.551 73.6715 191.744 73.6715C189.936 73.6715 188.482 73.1174 187.397 72.009C186.306 70.9006 185.761 69.452 185.761 67.6582ZM196.827 113.145H186.665V78.5522H196.827V113.145Z" fill="white"/>
<path d="M204.201 113.145V64.9707H214.363V80.3224C216.73 78.5773 219.604 77.7071 222.99 77.7071C226.05 77.7071 228.767 78.4752 231.134 80.0065C233.501 81.5377 235.356 83.6718 236.7 86.4087C238.044 89.1456 238.718 92.281 238.718 95.8151C238.718 99.3493 238.058 102.49 236.734 105.222C235.414 107.958 233.568 110.102 231.201 111.658C228.834 113.213 226.122 113.991 223.057 113.991C218.882 113.991 215.472 112.552 212.828 109.674L211.785 113.141H204.201V113.145ZM221.11 104.303C223.243 104.303 224.984 103.515 226.328 101.931C227.672 100.351 228.346 98.3138 228.346 95.8103C228.346 93.3068 227.672 91.3428 226.328 89.7629C224.984 88.183 223.243 87.3955 221.11 87.3955C218.978 87.3955 217.352 88.183 215.96 89.7629C214.569 91.3428 213.87 93.3602 213.87 95.8103C213.87 98.2603 214.569 100.351 215.96 101.931C217.352 103.51 219.069 104.303 221.11 104.303Z" fill="white"/>
<path d="M251.104 78.5529L252.146 82.1599C253.165 81.0758 254.451 80.0598 256.01 79.1168C257.565 78.1737 259.176 77.7021 260.845 77.7021C262.375 77.7021 263.533 77.916 264.326 78.339V87.7454H262.031C258.272 87.7454 255.513 88.5475 253.748 90.1517V113.14H243.586V78.548H251.104V78.5529Z" fill="white"/>
<path d="M283.603 113.996C280.031 113.996 276.898 113.228 274.206 111.697C271.514 110.165 269.429 108.031 267.942 105.294C266.454 102.562 265.713 99.4221 265.713 95.888C265.713 92.3539 266.454 89.1455 267.942 86.4086C269.424 83.6717 271.514 81.5377 274.206 80.0064C276.894 78.4751 280.026 77.707 283.603 77.707C287.18 77.707 290.236 78.4751 292.928 80.0064C295.616 81.5377 297.72 83.6717 299.226 86.4086C300.733 89.1455 301.488 92.3053 301.488 95.888C301.488 99.4707 300.733 102.562 299.226 105.294C297.72 108.031 295.62 110.165 292.928 111.697C290.236 113.228 287.127 113.996 283.603 113.996ZM283.603 103.953C285.831 103.953 287.649 103.209 289.064 101.726C290.48 100.239 291.187 98.27 291.187 95.8199C291.187 93.3699 290.48 91.4594 289.064 89.9476C287.649 88.4406 285.827 87.6823 283.603 87.6823C281.379 87.6823 279.495 88.426 278.104 89.9087C276.712 91.3962 276.014 93.365 276.014 95.8151C276.014 98.2651 276.712 100.234 278.104 101.721C279.495 103.209 281.327 103.948 283.603 103.948V103.953Z" fill="white"/>
<path d="M311.574 113.855C309.67 113.855 308.025 113.145 306.634 111.73C305.242 110.316 304.544 108.643 304.544 106.709C304.544 104.774 305.242 103.043 306.634 101.653C308.025 100.263 309.67 99.5674 311.574 99.5674C313.477 99.5674 315.251 100.263 316.619 101.653C317.986 103.043 318.67 104.73 318.67 106.709C318.67 108.687 317.986 110.316 316.619 111.73C315.251 113.145 313.568 113.855 311.574 113.855Z" fill="white"/>
</g>
<defs>
<clipPath id="clip0_53_92">
<rect width="417" height="124" fill="white"/>
</clipPath>
</defs>
</svg>
